<?xml version="1.0" encoding="UTF-8" standalone="no"?>
<svg
   xmlns:dc="http://purl.org/dc/elements/1.1/"
   xmlns:cc="http://creativecommons.org/ns#"
   xmlns:rdf="http://www.w3.org/1999/02/22-rdf-syntax-ns#"
   xmlns:svg="http://www.w3.org/2000/svg"
   xmlns="http://www.w3.org/2000/svg"
   xmlns:xlink="http://www.w3.org/1999/xlink"
   xmlns:sodipodi="http://sodipodi.sourceforge.net/DTD/sodipodi-0.dtd"
   xmlns:inkscape="http://www.inkscape.org/namespaces/inkscape"
   inkscape:version="1.0 (4035a4fb49, 2020-05-01)"
   sodipodi:docname="untitled.svg"
   id="svg26"
   height="59.017029"
   width="437.54443"
   viewBox="0 0 437.54443 59.017029"
   preserveAspectRatio="xMidYMid meet"
   version="1.1">
  <metadata
     id="metadata30">
    <rdf:RDF>
      <cc:Work
         rdf:about="">
        <dc:format>image/svg+xml</dc:format>
        <dc:type
           rdf:resource="http://purl.org/dc/dcmitype/StillImage" />
      </cc:Work>
    </rdf:RDF>
  </metadata>
  <sodipodi:namedview
     inkscape:current-layer="svg26"
     inkscape:window-maximized="1"
     inkscape:window-y="-8"
     inkscape:window-x="-8"
     inkscape:cy="-38.402973"
     inkscape:cx="230.36445"
     inkscape:zoom="0.840625"
     showgrid="false"
     id="namedview28"
     inkscape:window-height="705"
     inkscape:window-width="1366"
     inkscape:pageshadow="2"
     inkscape:pageopacity="0"
     guidetolerance="10"
     gridtolerance="10"
     objecttolerance="10"
     borderopacity="1"
     bordercolor="#666666"
     pagecolor="#ffffff" />
  <defs
     id="defs4">
    <path
       id="b4JMyQrZHn"
       d="m 182.45,411 h -3.19 l -2.42,-5.6 h -10.5 l -2.43,5.6 h -3.23 l 9.09,-21.75 h 3.52 z m -11.02,-18.59 -3.92,10.19 h 8.11 z m 26.42,1.59 h 2.71 v 14.57 c 0,0 0,0 0,0 0,1.19 -0.15,2.3 -0.45,3.33 v 0 c 0,0 0,0 0,0 -0.3,1.02 -0.8,1.9 -1.5,2.64 v 0 c 0,0 0,0 0,0 -0.7,0.75 -1.63,1.33 -2.81,1.76 v 0 c 0,0 0,0 0,0 -1.16,0.42 -2.61,0.62 -4.35,0.62 v 0 c 0,0 0,0 0,0 -0.7,0 -1.37,-0.06 -2,-0.19 v 0 c 0,0 0,0 0,0 -0.64,-0.11 -1.21,-0.25 -1.72,-0.43 v 0 c 0,0 0,0 0,0 -0.58,-0.2 -1.13,-0.43 -1.64,-0.66 v 0 l -0.43,-2.79 c 0,0 0,0 0,0 0.46,0.3 1,0.57 1.6,0.79 v 0 c 0,0 0,0 0,0 0.51,0.19 1.12,0.36 1.83,0.52 v 0 c 0,0 0,0 0,0 0.72,0.16 1.5,0.24 2.36,0.24 v 0 c 0,0 0,0 0,0 1.49,0 2.64,-0.21 3.45,-0.62 v 0 c 0,0 0,0 0,0 0.81,-0.41 1.4,-0.92 1.78,-1.52 v 0 c 0,0 0,0 0,0 0.38,-0.62 0.61,-1.29 0.67,-2 v 0 c 0,0 0,0 0,0 0.05,-0.73 0.07,-1.4 0.07,-2 v 0 c 0,0 0,0 0,0 -0.71,0.95 -1.51,1.65 -2.38,2.09 v 0 c 0,0 0,0 0,0 -0.87,0.43 -1.89,0.65 -3.05,0.65 v 0 c 0,0 0,0 0,0 -0.98,0 -1.92,-0.19 -2.83,-0.55 v 0 c 0,0 0,0 0,0 -0.92,-0.37 -1.73,-0.91 -2.42,-1.64 v 0 c 0,0 0,0 0,0 -0.72,-0.75 -1.29,-1.65 -1.72,-2.72 v 0 c 0,0 0,0 0,0 -0.41,-1.07 -0.62,-2.34 -0.62,-3.78 v 0 c 0,0 0,0 0,0 0,-1.43 0.21,-2.68 0.62,-3.76 v 0 c 0,0 0,0 0,0 0.43,-1.08 1,-1.98 1.72,-2.71 v 0 c 0,0 0,0 0,0 0.69,-0.73 1.5,-1.29 2.42,-1.67 v 0 c 0,0 0,0 0,0 0.91,-0.38 1.85,-0.57 2.83,-0.57 v 0 c 0,0 0,0 0,0 1.12,0 2.02,0.15 2.72,0.45 v 0 c 0,0 0,0 0,0 0.7,0.3 1.24,0.64 1.64,1.03 v 0 c 0,0 0,0 0,0 0.48,0.41 0.83,0.89 1.07,1.45 v 0 z m -5.28,14.47 c 0,0 0,0 0,0 0.73,0 1.39,-0.16 1.99,-0.5 v 0 c 0,0 0,0 0,0 0.59,-0.31 1.1,-0.75 1.53,-1.3 v 0 c 0,0 0,0 0,0 0.43,-0.56 0.75,-1.22 0.97,-1.98 v 0 c 0,0 0,0 0,0 0.24,-0.75 0.36,-1.54 0.36,-2.38 v 0 c 0,0 0,0 0,0 0,-0.86 -0.12,-1.66 -0.36,-2.4 v 0 c 0,0 0,0 0,0 -0.22,-0.73 -0.54,-1.38 -0.97,-1.95 v 0 c 0,0 0,0 0,0 -0.43,-0.58 -0.94,-1.02 -1.53,-1.34 v 0 c 0,0 0,0 0,0 -0.6,-0.31 -1.26,-0.47 -1.99,-0.47 v 0 c 0,0 0,0 0,0 -0.72,0 -1.38,0.16 -1.98,0.47 v 0 c 0,0 0,0 0,0 -0.6,0.32 -1.11,0.76 -1.52,1.34 v 0 c 0,0 0,0 0,0 -0.43,0.57 -0.76,1.22 -1,1.95 v 0 c 0,0 0,0 0,0 -0.22,0.74 -0.34,1.54 -0.34,2.4 v 0 c 0,0 0,0 0,0 0,0.84 0.12,1.63 0.34,2.38 v 0 c 0,0 0,0 0,0 0.24,0.76 0.57,1.42 1,1.98 v 0 c 0,0 0,0 0,0 0.41,0.55 0.92,0.99 1.52,1.3 v 0 c 0,0 0,0 0,0 0.6,0.34 1.26,0.5 1.98,0.5 z m 21.34,2.93 c 0,0 0,0 0,0 -1.9,0 -3.45,-0.28 -4.64,-0.86 v 0 c 0,0 0,0 0,0 -1.19,-0.57 -2.12,-1.3 -2.78,-2.19 v 0 c 0,0 0,0 0,0 -0.67,-0.88 -1.13,-1.88 -1.38,-2.97 v 0 c 0,0 0,0 0,0 -0.24,-1.09 -0.36,-2.17 -0.36,-3.24 v 0 c 0,0 0,0 0,0 0,-1.08 0.17,-2.12 0.52,-3.14 v 0 c 0,0 0,0 0,0 0.34,-1.01 0.84,-1.93 1.5,-2.73 v 0 c 0,0 0,0 0,0 0.65,-0.8 1.45,-1.44 2.41,-1.93 v 0 c 0,0 0,0 0,0 0.95,-0.49 2.05,-0.74 3.3,-0.74 v 0 c 0,0 0,0 0,0 1.5,0 2.74,0.26 3.74,0.79 v 0 c 0,0 0,0 0,0 1,0.52 1.79,1.2 2.38,2.04 v 0 c 0,0 0,0 0,0 0.6,0.83 1.03,1.75 1.28,2.76 v 0 c 0,0 0,0 0,0 0.24,1 0.36,1.99 0.36,2.95 v 0 1.05 h -12.16 c 0,0 0,0 0,0 0.1,1.08 0.34,2.02 0.74,2.83 v 0 c 0,0 0,0 0,0 0.17,0.37 0.4,0.72 0.67,1.07 v 0 c 0,0 0,0 0,0 0.27,0.34 0.59,0.64 0.97,0.91 v 0 c 0,0 0,0 0,0 0.4,0.27 0.85,0.48 1.36,0.64 v 0 c 0,0 0,0 0,0 0.51,0.14 1.09,0.21 1.76,0.21 v 0 c 0,0 0,0 0,0 0.71,0 1.39,-0.07 2.02,-0.23 v 0 c 0,0 0,0 0,0 0.64,-0.18 1.19,-0.36 1.67,-0.55 v 0 c 0,0 0,0 0,0 0.58,-0.25 1.12,-0.53 1.62,-0.83 v 0 l 0.02,2.85 c 0,0 0,0 0,0 0,0 -0.13,0.07 -0.38,0.22 v 0 c 0,0 0,0 0,0 -0.26,0.14 -0.6,0.29 -1.05,0.45 v 0 c 0,0 0,0 0,0 -0.44,0.16 -0.97,0.3 -1.59,0.43 v 0 c 0,0 0,0 0,0 -0.61,0.14 -1.26,0.21 -1.98,0.21 z m 3,-10.54 c 0,0 0,0 0,0 0,-0.56 -0.08,-1.11 -0.24,-1.67 v 0 c 0,0 0,0 0,0 -0.17,-0.57 -0.43,-1.08 -0.78,-1.54 v 0 c 0,0 0,0 0,0 -0.37,-0.45 -0.83,-0.81 -1.38,-1.1 v 0 c 0,0 0,0 0,0 -0.56,-0.27 -1.23,-0.4 -2.03,-0.4 v 0 c 0,0 0,0 0,0 -0.69,0 -1.31,0.13 -1.85,0.4 v 0 c 0,0 0,0 0,0 -0.54,0.29 -1,0.65 -1.38,1.1 v 0 c 0,0 0,0 0,0 -0.38,0.46 -0.67,0.97 -0.86,1.54 v 0 c 0,0 0,0 0,0 -0.21,0.56 -0.31,1.11 -0.31,1.67 z m 16.18,-7.26 c 0,0 0,0 0,0 2.22,0 3.85,0.66 4.88,1.98 v 0 c 0,0 0,0 0,0 1.02,1.3 1.52,3.16 1.52,5.59 v 0 9.83 h -3.16 v -8.98 c 0,0 0,0 0,0 0,-2.01 -0.26,-3.49 -0.76,-4.45 v 0 c 0,0 0,0 0,0 -0.51,-0.95 -1.41,-1.42 -2.69,-1.42 v 0 c 0,0 0,0 0,0 -0.89,0 -1.67,0.16 -2.33,0.5 v 0 c 0,0 0,0 0,0 -0.65,0.33 -1.2,0.8 -1.65,1.4 v 0 c 0,0 0,0 0,0 -0.44,0.62 -0.77,1.36 -1,2.21 v 0 c 0,0 0,0 0,0 -0.22,0.84 -0.33,1.79 -0.33,2.84 v 0 7.9 h -3.14 v -17 h 2.64 l 0.5,2.69 c 0,0 0,0 0,0 0.54,-0.9 1.32,-1.64 2.33,-2.21 v 0 c 0,0 0,0 0,0 1.02,-0.59 2.08,-0.88 3.19,-0.88 z m 36.82,-4.35 v 0 h 3.54 l -8.8,21.75 h -4.24 l -8.78,-21.75 h 3.5 l 7.42,18.75 z m 9.4,4.75 v 17 h -3.12 v -17 z m 0.43,-4.06 c 0,0 0,0 0,0 0,0.58 -0.2,1.07 -0.6,1.47 v 0 c 0,0 0,0 0,0 -0.4,0.4 -0.87,0.6 -1.43,0.6 v 0 c 0,0 0,0 0,0 -0.57,0 -1.06,-0.2 -1.47,-0.6 v 0 c 0,0 0,0 0,0 -0.4,-0.4 -0.6,-0.89 -0.6,-1.47 v 0 c 0,0 0,0 0,0 0,-0.56 0.2,-1.04 0.6,-1.43 v 0 c 0,0 0,0 0,0 0.41,-0.4 0.9,-0.6 1.47,-0.6 v 0 c 0,0 0,0 0,0 0.56,0 1.03,0.2 1.43,0.6 v 0 c 0,0 0,0 0,0 0.4,0.39 0.6,0.87 0.6,1.43 z M 291.01,411 c 0,0 0,0 0,0 -0.36,0.12 -0.76,0.23 -1.21,0.31 v 0 c 0,0 0,0 0,0 -0.44,0.06 -0.86,0.09 -1.24,0.09 v 0 c 0,0 0,0 0,0 -1.12,0 -1.99,-0.33 -2.59,-1 v 0 c 0,0 0,0 0,0 -0.6,-0.67 -0.9,-1.63 -0.9,-2.9 v 0 -17.64 h 3.14 v 17.57 c 0,0 0,0 0,0 0,0.47 0.08,0.82 0.26,1.04 v 0 c 0,0 0,0 0,0 0.16,0.24 0.43,0.36 0.83,0.36 v 0 c 0,0 0,0 0,0 0.22,0 0.52,-0.02 0.88,-0.05 v 0 c 0,0 0,0 0,0 0.37,-0.03 0.64,-0.07 0.83,-0.12 z m 10.26,0 c 0,0 0,0 0,0 -0.36,0.12 -0.77,0.23 -1.21,0.31 v 0 c 0,0 0,0 0,0 -0.45,0.06 -0.85,0.09 -1.22,0.09 v 0 c 0,0 0,0 0,0 -1.14,0 -2.01,-0.33 -2.61,-1 v 0 c 0,0 0,0 0,0 -0.59,-0.67 -0.88,-1.63 -0.88,-2.9 v 0 -17.64 h 3.11 v 17.57 c 0,0 0,0 0,0 0,0.47 0.09,0.82 0.27,1.04 v 0 c 0,0 0,0 0,0 0.15,0.24 0.43,0.36 0.83,0.36 v 0 c 0,0 0,0 0,0 0.22,0 0.52,-0.02 0.9,-0.05 v 0 c 0,0 0,0 0,0 0.37,-0.03 0.64,-0.07 0.81,-0.12 z m 11.02,-17.4 c 0,0 0,0 0,0 1.22,0.06 2.31,0.32 3.26,0.76 v 0 c 0,0 0,0 0,0 0.41,0.21 0.82,0.45 1.21,0.74 v 0 c 0,0 0,0 0,0 0.4,0.29 0.76,0.64 1.07,1.07 v 0 c 0,0 0,0 0,0 0.31,0.43 0.55,0.92 0.74,1.48 v 0 c 0,0 0,0 0,0 0.19,0.57 0.29,1.23 0.29,1.99 v 0 11.36 h -2.93 l -0.4,-2.07 c 0,0 0,0 0,0 0,0 -0.11,0.13 -0.34,0.4 v 0 c 0,0 0,0 0,0 -0.22,0.27 -0.54,0.56 -0.97,0.86 v 0 c 0,0 0,0 0,0 -0.42,0.3 -0.93,0.58 -1.55,0.83 v 0 c 0,0 0,0 0,0 -0.6,0.25 -1.28,0.38 -2.05,0.38 v 0 c 0,0 0,0 0,0 -1.84,0 -3.32,-0.42 -4.45,-1.26 v 0 c 0,0 0,0 0,0 -1.14,-0.83 -1.71,-2.16 -1.71,-4 v 0 c 0,0 0,0 0,0 0,-1.08 0.25,-1.97 0.76,-2.66 v 0 c 0,0 0,0 0,0 0.53,-0.7 1.15,-1.26 1.88,-1.67 v 0 c 0,0 0,0 0,0 0.75,-0.41 1.54,-0.69 2.38,-0.83 v 0 c 0,0 0,0 0,0 0.83,-0.16 1.56,-0.24 2.21,-0.24 v 0 h 4.03 v -1.14 c 0,0 0,0 0,0 -0.08,-1.02 -0.35,-1.78 -0.81,-2.29 v 0 c 0,0 0,0 0,0 -0.46,-0.52 -1.02,-0.86 -1.67,-1.02 v 0 c 0,0 0,0 0,0 -0.65,-0.18 -1.36,-0.2 -2.14,-0.07 v 0 c 0,0 0,0 0,0 -0.76,0.12 -1.48,0.29 -2.14,0.5 v 0 c 0,0 0,0 0,0 -0.67,0.2 -1.25,0.43 -1.74,0.66 v 0 c 0,0 0,0 0,0 -0.48,0.24 -0.78,0.4 -0.93,0.48 v 0 -2.67 c 0,0 0,0 0,0 0.62,-0.28 1.26,-0.54 1.93,-0.78 v 0 c 0,0 0,0 0,0 0.59,-0.21 1.24,-0.39 1.95,-0.55 v 0 c 0,0 0,0 0,0 0.7,-0.17 1.41,-0.26 2.12,-0.26 z m -1.4,15.25 c 0,0 0,0 0,0 1.33,0 2.42,-0.3 3.28,-0.92 v 0 c 0,0 0,0 0,0 0.84,-0.64 1.36,-1.47 1.55,-2.5 v 0 -2.43 h -1.76 c 0,0 0,0 0,0 -0.42,0 -0.97,0.02 -1.67,0.05 v 0 c 0,0 0,0 0,0 -0.71,0.03 -1.4,0.13 -2.07,0.31 v 0 c 0,0 0,0 0,0 -0.67,0.19 -1.24,0.49 -1.71,0.9 v 0 c 0,0 0,0 0,0 -0.5,0.4 -0.74,0.98 -0.74,1.74 v 0 c 0,0 0,0 0,0 0,0.46 0.09,0.87 0.28,1.24 v 0 c 0,0 0,0 0,0 0.21,0.35 0.46,0.65 0.77,0.9 v 0 c 0,0 0,0 0,0 0.3,0.24 0.64,0.42 1.02,0.55 v 0 c 0,0 0,0 0,0 0.36,0.11 0.71,0.16 1.05,0.16 z m 31.69,-8.92 c 0,0 0,0 0,0 0,0.03 0.13,0.06 0.38,0.1 v 0 c 0,0 0,0 0,0 0.26,0.04 0.57,0.13 0.93,0.26 v 0 c 0,0 0,0 0,0 0.37,0.12 0.77,0.3 1.22,0.52 v 0 c 0,0 0,0 0,0 0.44,0.22 0.84,0.52 1.21,0.88 v 0 c 0,0 0,0 0,0 0.36,0.37 0.68,0.81 0.95,1.33 v 0 c 0,0 0,0 0,0 0.26,0.53 0.38,1.14 0.38,1.84 v 0 c 0,0 0,0 0,0 0,1.41 -0.27,2.52 -0.81,3.33 v 0 c 0,0 0,0 0,0 -0.54,0.81 -1.23,1.42 -2.07,1.83 v 0 c 0,0 0,0 0,0 -0.84,0.41 -1.78,0.67 -2.83,0.79 v 0 c 0,0 0,0 0,0 -1.06,0.12 -2.12,0.19 -3.19,0.19 v 0 h -5.21 v -21.75 h 5.66 c 0,0 0,0 0,0 1.08,0 2.1,0.08 3.05,0.26 v 0 c 0,0 0,0 0,0 0.95,0.17 1.79,0.5 2.5,0.97 v 0 c 0,0 0,0 0,0 0.71,0.46 1.28,1.09 1.69,1.88 v 0 c 0,0 0,0 0,0 0.43,0.78 0.64,1.78 0.64,3 v 0 c 0,0 0,0 0,0 0,0.97 -0.24,1.75 -0.71,2.33 v 0 c 0,0 0,0 0,0 -0.46,0.61 -0.97,1.07 -1.53,1.41 v 0 c 0,0 0,0 0,0 -0.55,0.33 -1.07,0.55 -1.54,0.66 v 0 c 0,0 0,0 0,0 -0.48,0.11 -0.72,0.17 -0.72,0.17 z m -5.66,-7.92 v 6.47 h 2.83 c 0,0 0,0 0,0 0.49,0 0.98,-0.06 1.45,-0.19 v 0 c 0,0 0,0 0,0 0.48,-0.13 0.91,-0.33 1.29,-0.6 v 0 c 0,0 0,0 0,0 0.36,-0.28 0.66,-0.65 0.88,-1.09 v 0 c 0,0 0,0 0,0 0.22,-0.45 0.33,-0.98 0.33,-1.6 v 0 c 0,0 0,0 0,0 0,-0.61 -0.11,-1.12 -0.33,-1.52 v 0 c 0,0 0,0 0,0 -0.22,-0.41 -0.52,-0.72 -0.91,-0.93 v 0 c 0,0 0,0 0,0 -0.39,-0.2 -0.84,-0.35 -1.35,-0.43 v 0 c 0,0 0,0 0,0 -0.51,-0.07 -1.04,-0.11 -1.6,-0.11 v 0 z m 0,16.3 h 2.69 c 0,0 0,0 0,0 0.59,0 1.15,-0.06 1.69,-0.17 v 0 c 0,0 0,0 0,0 0.54,-0.09 1.01,-0.26 1.43,-0.5 v 0 c 0,0 0,0 0,0 0.41,-0.25 0.74,-0.6 1,-1.05 v 0 c 0,0 0,0 0,0 0.25,-0.44 0.38,-1.02 0.38,-1.73 v 0 c 0,0 0,0 0,0 0,-0.7 -0.13,-1.3 -0.38,-1.79 v 0 c 0,0 0,0 0,0 -0.26,-0.47 -0.6,-0.85 -1.03,-1.12 v 0 c 0,0 0,0 0,0 -0.44,-0.28 -0.95,-0.48 -1.52,-0.59 v 0 c 0,0 0,0 0,0 -0.57,-0.11 -1.17,-0.17 -1.81,-0.17 v 0 h -2.45 z m 22.61,-14.71 c 0,0 0,0 0,0 1.22,0.06 2.31,0.32 3.28,0.76 v 0 c 0,0 0,0 0,0 0.4,0.21 0.79,0.45 1.19,0.74 v 0 c 0,0 0,0 0,0 0.4,0.29 0.75,0.64 1.07,1.07 v 0 c 0,0 0,0 0,0 0.3,0.43 0.55,0.92 0.74,1.48 v 0 c 0,0 0,0 0,0 0.19,0.57 0.29,1.23 0.29,1.99 v 0 11.36 h -2.93 l -0.41,-2.07 c 0,0 0,0 0,0 0,0 -0.11,0.13 -0.33,0.4 v 0 c 0,0 0,0 0,0 -0.22,0.27 -0.54,0.56 -0.95,0.86 v 0 c 0,0 0,0 0,0 -0.43,0.3 -0.95,0.58 -1.57,0.83 v 0 c 0,0 0,0 0,0 -0.6,0.25 -1.29,0.38 -2.05,0.38 v 0 c 0,0 0,0 0,0 -1.84,0 -3.32,-0.42 -4.45,-1.26 v 0 c 0,0 0,0 0,0 -1.14,-0.83 -1.71,-2.16 -1.71,-4 v 0 c 0,0 0,0 0,0 0,-1.08 0.26,-1.97 0.78,-2.66 v 0 c 0,0 0,0 0,0 0.51,-0.7 1.14,-1.26 1.88,-1.67 v 0 c 0,0 0,0 0,0 0.75,-0.41 1.53,-0.69 2.36,-0.83 v 0 c 0,0 0,0 0,0 0.84,-0.16 1.58,-0.24 2.21,-0.24 v 0 h 4.05 v -1.14 c 0,0 0,0 0,0 -0.1,-1.02 -0.37,-1.78 -0.84,-2.29 v 0 c 0,0 0,0 0,0 -0.44,-0.52 -0.99,-0.86 -1.66,-1.02 v 0 c 0,0 0,0 0,0 -0.65,-0.18 -1.36,-0.2 -2.12,-0.07 v 0 c 0,0 0,0 0,0 -0.78,0.12 -1.5,0.29 -2.16,0.5 v 0 c 0,0 0,0 0,0 -0.67,0.2 -1.24,0.43 -1.72,0.66 v 0 c 0,0 0,0 0,0 -0.49,0.24 -0.81,0.4 -0.95,0.48 v 0 -2.67 c 0,0 0,0 0,0 0.63,-0.28 1.29,-0.54 1.95,-0.78 v 0 c 0,0 0,0 0,0 0.57,-0.21 1.22,-0.39 1.93,-0.55 v 0 c 0,0 0,0 0,0 0.71,-0.17 1.42,-0.26 2.12,-0.26 z m -1.38,15.25 c 0,0 0,0 0,0 1.33,0 2.42,-0.3 3.26,-0.92 v 0 c 0,0 0,0 0,0 0.84,-0.64 1.36,-1.47 1.57,-2.5 v 0 -2.43 h -1.79 c 0,0 0,0 0,0 -0.41,0 -0.96,0.02 -1.66,0.05 v 0 c 0,0 0,0 0,0 -0.7,0.03 -1.38,0.13 -2.05,0.31 v 0 c 0,0 0,0 0,0 -0.67,0.19 -1.24,0.49 -1.74,0.9 v 0 c 0,0 0,0 0,0 -0.49,0.4 -0.73,0.98 -0.73,1.74 v 0 c 0,0 0,0 0,0 0,0.46 0.1,0.87 0.31,1.24 v 0 c 0,0 0,0 0,0 0.19,0.35 0.43,0.65 0.73,0.9 v 0 c 0,0 0,0 0,0 0.3,0.24 0.65,0.42 1.03,0.55 v 0 c 0,0 0,0 0,0 0.38,0.11 0.73,0.16 1.07,0.16 z m 22.49,-10.66 h -4.5 v 7.95 c 0,0 0,0 0,0 0,1.79 0.76,2.69 2.28,2.69 v 0 c 0,0 0,0 0,0 0.65,0 1.31,-0.17 1.98,-0.5 v 0 2.43 c 0,0 0,0 0,0 -0.92,0.43 -1.89,0.64 -2.91,0.64 v 0 c 0,0 0,0 0,0 -1.46,0 -2.6,-0.42 -3.42,-1.26 v 0 c 0,0 0,0 0,0 -0.81,-0.83 -1.22,-2.05 -1.22,-3.67 v 0 -8.28 h -3.02 v -2.54 h 3.02 v -5 l 3.29,-0.79 v 5.79 h 4.5 z m 10.35,13.21 c 0,0 0,0 0,0 -2.22,0 -3.84,-0.66 -4.86,-1.97 v 0 c 0,0 0,0 0,0 -1.03,-1.31 -1.54,-3.17 -1.54,-5.6 v 0 -9.83 h 3.16 v 8.98 c 0,0 0,0 0,0 0,2.01 0.25,3.49 0.76,4.45 v 0 c 0,0 0,0 0,0 0.53,0.95 1.43,1.42 2.72,1.42 v 0 c 0,0 0,0 0,0 0.88,0 1.65,-0.16 2.3,-0.5 v 0 c 0,0 0,0 0,0 0.65,-0.33 1.2,-0.8 1.65,-1.4 v 0 c 0,0 0,0 0,0 0.44,-0.62 0.77,-1.35 1,-2.19 v 0 c 0,0 0,0 0,0 0.22,-0.86 0.33,-1.81 0.33,-2.85 v 0 -7.91 h 3.14 v 17 h -2.64 l -0.5,-2.69 c 0,0 0,0 0,0 -0.53,0.9 -1.3,1.64 -2.33,2.21 v 0 c 0,0 0,0 0,0 -1.02,0.59 -2.08,0.88 -3.19,0.88 z m 23.58,-22.15 h 5.38 l 6.66,17.82 6.26,-17.82 h 5.35 -5.35 5.35 V 411 h -3.33 v -18.49 l -3.19,9.25 c 0,0 0,0 0,0 -0.93,2.72 -2.01,5.79 -3.23,9.24 v 0 h -3.76 L 417.9,392.51 V 411 h -3.33 z m 36.12,4.35 c 0,0 0,0 0,0 1.23,0.06 2.31,0.32 3.26,0.76 v 0 c 0,0 0,0 0,0 0.4,0.21 0.8,0.45 1.19,0.74 v 0 c 0,0 0,0 0,0 0.42,0.29 0.77,0.64 1.08,1.07 v 0 c 0,0 0,0 0,0 0.31,0.43 0.57,0.92 0.76,1.48 v 0 c 0,0 0,0 0,0 0.19,0.57 0.28,1.23 0.28,1.99 v 0 11.36 h -2.95 l -0.38,-2.07 c 0,0 0,0 0,0 0,0 -0.11,0.13 -0.33,0.4 v 0 c 0,0 0,0 0,0 -0.22,0.27 -0.55,0.56 -0.98,0.86 v 0 c 0,0 0,0 0,0 -0.43,0.3 -0.94,0.58 -1.54,0.83 v 0 c 0,0 0,0 0,0 -0.62,0.25 -1.31,0.38 -2.05,0.38 v 0 c 0,0 0,0 0,0 -1.84,0 -3.33,-0.42 -4.48,-1.26 v 0 c 0,0 0,0 0,0 -1.12,-0.83 -1.68,-2.16 -1.68,-4 v 0 c 0,0 0,0 0,0 0,-1.08 0.25,-1.97 0.76,-2.66 v 0 c 0,0 0,0 0,0 0.5,-0.7 1.13,-1.26 1.88,-1.67 v 0 c 0,0 0,0 0,0 0.74,-0.41 1.53,-0.69 2.35,-0.83 v 0 c 0,0 0,0 0,0 0.84,-0.16 1.59,-0.24 2.24,-0.24 v 0 h 4.02 v -1.14 c 0,0 0,0 0,0 -0.09,-1.02 -0.36,-1.78 -0.81,-2.29 v 0 c 0,0 0,0 0,0 -0.46,-0.52 -1.01,-0.86 -1.66,-1.02 v 0 c 0,0 0,0 0,0 -0.67,-0.18 -1.38,-0.2 -2.15,-0.07 v 0 c 0,0 0,0 0,0 -0.76,0.12 -1.47,0.29 -2.14,0.5 v 0 c 0,0 0,0 0,0 -0.66,0.2 -1.24,0.43 -1.73,0.66 v 0 c 0,0 0,0 0,0 -0.5,0.24 -0.81,0.4 -0.93,0.48 v 0 -2.67 c 0,0 0,0 0,0 0.62,-0.28 1.26,-0.54 1.93,-0.78 v 0 c 0,0 0,0 0,0 0.57,-0.21 1.21,-0.39 1.92,-0.55 v 0 c 0,0 0,0 0,0 0.72,-0.17 1.43,-0.26 2.14,-0.26 z m -1.4,15.25 c 0,0 0,0 0,0 1.33,0 2.42,-0.3 3.26,-0.92 v 0 c 0,0 0,0 0,0 0.84,-0.64 1.37,-1.47 1.57,-2.5 v 0 -2.43 h -1.76 c 0,0 0,0 0,0 -0.43,0 -0.99,0.02 -1.69,0.05 v 0 c 0,0 0,0 0,0 -0.7,0.03 -1.38,0.13 -2.05,0.31 v 0 c 0,0 0,0 0,0 -0.66,0.19 -1.24,0.49 -1.73,0.9 v 0 c 0,0 0,0 0,0 -0.49,0.4 -0.74,0.98 -0.74,1.74 v 0 c 0,0 0,0 0,0 0,0.46 0.1,0.87 0.31,1.24 v 0 c 0,0 0,0 0,0 0.2,0.35 0.45,0.65 0.74,0.9 v 0 c 0,0 0,0 0,0 0.3,0.24 0.64,0.42 1.02,0.55 v 0 c 0,0 0,0 0,0 0.38,0.11 0.74,0.16 1.07,0.16 z m 19.23,2.15 c 0,0 0,0 0,0 -0.37,0.12 -0.77,0.23 -1.21,0.31 v 0 c 0,0 0,0 0,0 -0.45,0.06 -0.85,0.09 -1.22,0.09 v 0 c 0,0 0,0 0,0 -1.14,0 -2.01,-0.33 -2.62,-1 v 0 c 0,0 0,0 0,0 -0.58,-0.67 -0.88,-1.63 -0.88,-2.9 v 0 -17.64 h 3.12 v 17.57 c 0,0 0,0 0,0 0,0.47 0.09,0.82 0.26,1.04 v 0 c 0,0 0,0 0,0 0.16,0.24 0.44,0.36 0.84,0.36 v 0 c 0,0 0,0 0,0 0.22,0 0.51,-0.02 0.88,-0.05 v 0 c 0,0 0,0 0,0 0.38,-0.03 0.65,-0.07 0.83,-0.12 z m 11.02,-17.4 c 0,0 0,0 0,0 1.22,0.06 2.31,0.32 3.26,0.76 v 0 c 0,0 0,0 0,0 0.41,0.21 0.81,0.45 1.21,0.74 v 0 c 0,0 0,0 0,0 0.4,0.29 0.75,0.64 1.07,1.07 v 0 c 0,0 0,0 0,0 0.3,0.43 0.55,0.92 0.74,1.48 v 0 c 0,0 0,0 0,0 0.19,0.57 0.28,1.23 0.28,1.99 v 0 11.36 h -2.92 l -0.41,-2.07 c 0,0 0,0 0,0 0,0 -0.11,0.13 -0.33,0.4 v 0 c 0,0 0,0 0,0 -0.22,0.27 -0.55,0.56 -0.98,0.86 v 0 c 0,0 0,0 0,0 -0.41,0.3 -0.92,0.58 -1.54,0.83 v 0 c 0,0 0,0 0,0 -0.61,0.25 -1.29,0.38 -2.05,0.38 v 0 c 0,0 0,0 0,0 -1.84,0 -3.32,-0.42 -4.45,-1.26 v 0 c 0,0 0,0 0,0 -1.14,-0.83 -1.71,-2.16 -1.71,-4 v 0 c 0,0 0,0 0,0 0,-1.08 0.25,-1.97 0.76,-2.66 v 0 c 0,0 0,0 0,0 0.52,-0.7 1.15,-1.26 1.88,-1.67 v 0 c 0,0 0,0 0,0 0.74,-0.41 1.54,-0.69 2.38,-0.83 v 0 c 0,0 0,0 0,0 0.82,-0.16 1.56,-0.24 2.21,-0.24 v 0 h 4.02 v -1.14 c 0,0 0,0 0,0 -0.08,-1.02 -0.35,-1.78 -0.81,-2.29 v 0 c 0,0 0,0 0,0 -0.46,-0.52 -1.01,-0.86 -1.66,-1.02 v 0 c 0,0 0,0 0,0 -0.65,-0.18 -1.37,-0.2 -2.14,-0.07 v 0 c 0,0 0,0 0,0 -0.76,0.12 -1.48,0.29 -2.14,0.5 v 0 c 0,0 0,0 0,0 -0.67,0.2 -1.25,0.43 -1.74,0.66 v 0 c 0,0 0,0 0,0 -0.48,0.24 -0.79,0.4 -0.93,0.48 v 0 -2.67 c 0,0 0,0 0,0 0.62,-0.28 1.26,-0.54 1.93,-0.78 v 0 c 0,0 0,0 0,0 0.58,-0.21 1.23,-0.39 1.95,-0.55 v 0 c 0,0 0,0 0,0 0.7,-0.17 1.4,-0.26 2.12,-0.26 z m -1.41,15.25 c 0,0 0,0 0,0 1.34,0 2.43,-0.3 3.29,-0.92 v 0 c 0,0 0,0 0,0 0.84,-0.64 1.35,-1.47 1.54,-2.5 v 0 -2.43 h -1.76 c 0,0 0,0 0,0 -0.41,0 -0.97,0.02 -1.69,0.05 v 0 c 0,0 0,0 0,0 -0.69,0.03 -1.38,0.13 -2.04,0.31 v 0 c 0,0 0,0 0,0 -0.67,0.19 -1.24,0.49 -1.72,0.9 v 0 c 0,0 0,0 0,0 -0.49,0.4 -0.73,0.98 -0.73,1.74 v 0 c 0,0 0,0 0,0 0,0.46 0.09,0.87 0.28,1.24 v 0 c 0,0 0,0 0,0 0.21,0.35 0.46,0.65 0.76,0.9 v 0 c 0,0 0,0 0,0 0.3,0.24 0.64,0.42 1.03,0.55 v 0 c 0,0 0,0 0,0 0.36,0.11 0.71,0.16 1.04,0.16 z M 500.1,393.6 c 0,0 0,0 0,0 2.22,0 3.84,0.66 4.85,1.98 v 0 c 0,0 0,0 0,0 1.03,1.3 1.55,3.16 1.55,5.59 v 0 9.83 h -3.17 v -8.98 c 0,0 0,0 0,0 0,-2.01 -0.25,-3.49 -0.76,-4.45 v 0 c 0,0 0,0 0,0 -0.52,-0.95 -1.43,-1.42 -2.71,-1.42 v 0 c 0,0 0,0 0,0 -0.89,0 -1.66,0.16 -2.31,0.5 v 0 c 0,0 0,0 0,0 -0.65,0.33 -1.2,0.8 -1.64,1.4 v 0 c 0,0 0,0 0,0 -0.44,0.62 -0.78,1.36 -1,2.21 v 0 c 0,0 0,0 0,0 -0.22,0.84 -0.33,1.79 -0.33,2.84 v 0 7.9 h -3.14 v -17 h 2.64 l 0.5,2.69 c 0,0 0,0 0,0 0.52,-0.9 1.3,-1.64 2.33,-2.21 v 0 c 0,0 0,0 0,0 1.01,-0.59 2.08,-0.88 3.19,-0.88 z m 24.06,0.4 h 2.69 v 14.57 c 0,0 0,0 0,0 0,1.19 -0.15,2.3 -0.46,3.33 v 0 c 0,0 0,0 0,0 -0.3,1.02 -0.8,1.9 -1.5,2.64 v 0 c 0,0 0,0 0,0 -0.69,0.75 -1.62,1.33 -2.78,1.76 v 0 c 0,0 0,0 0,0 -1.17,0.42 -2.63,0.62 -4.35,0.62 v 0 c 0,0 0,0 0,0 -0.72,0 -1.39,-0.06 -2.03,-0.19 v 0 c 0,0 0,0 0,0 -0.63,-0.11 -1.2,-0.25 -1.71,-0.43 v 0 c 0,0 0,0 0,0 -0.57,-0.2 -1.11,-0.43 -1.62,-0.66 v 0 l -0.45,-2.79 c 0,0 0,0 0,0 0.47,0.3 1.01,0.57 1.62,0.79 v 0 c 0,0 0,0 0,0 0.5,0.19 1.12,0.36 1.83,0.52 v 0 c 0,0 0,0 0,0 0.7,0.16 1.48,0.24 2.36,0.24 v 0 c 0,0 0,0 0,0 1.49,0 2.64,-0.21 3.45,-0.62 v 0 c 0,0 0,0 0,0 0.81,-0.41 1.4,-0.92 1.78,-1.52 v 0 c 0,0 0,0 0,0 0.38,-0.62 0.6,-1.29 0.64,-2 v 0 c 0,0 0,0 0,0 0.07,-0.73 0.1,-1.4 0.1,-2 v 0 c 0,0 0,0 0,0 -0.72,0.95 -1.52,1.65 -2.41,2.09 v 0 c 0,0 0,0 0,0 -0.87,0.43 -1.88,0.65 -3.04,0.65 v 0 c 0,0 0,0 0,0 -0.97,0 -1.91,-0.19 -2.83,-0.55 v 0 c 0,0 0,0 0,0 -0.91,-0.37 -1.72,-0.91 -2.43,-1.64 v 0 c 0,0 0,0 0,0 -0.71,-0.75 -1.28,-1.65 -1.69,-2.72 v 0 c 0,0 0,0 0,0 -0.43,-1.07 -0.64,-2.34 -0.64,-3.78 v 0 c 0,0 0,0 0,0 0,-1.43 0.21,-2.68 0.64,-3.76 v 0 c 0,0 0,0 0,0 0.41,-1.08 0.98,-1.98 1.69,-2.71 v 0 c 0,0 0,0 0,0 0.71,-0.73 1.52,-1.29 2.43,-1.67 v 0 c 0,0 0,0 0,0 0.92,-0.38 1.86,-0.57 2.83,-0.57 v 0 c 0,0 0,0 0,0 1.11,0 2.02,0.15 2.74,0.45 v 0 c 0,0 0,0 0,0 0.69,0.3 1.24,0.65 1.64,1.03 v 0 c 0,0 0,0 0,0 0.46,0.41 0.81,0.89 1.07,1.45 v 0 z m -5.31,14.47 c 0,0 0,0 0,0 0.73,0 1.4,-0.16 2,-0.5 v 0 c 0,0 0,0 0,0 0.6,-0.31 1.12,-0.75 1.55,-1.3 v 0 c 0,0 0,0 0,0 0.41,-0.56 0.73,-1.22 0.97,-1.98 v 0 c 0,0 0,0 0,0 0.24,-0.75 0.36,-1.54 0.36,-2.38 v 0 c 0,0 0,0 0,0 0,-0.86 -0.12,-1.66 -0.36,-2.4 v 0 c 0,0 0,0 0,0 -0.24,-0.73 -0.56,-1.38 -0.97,-1.95 v 0 c 0,0 0,0 0,0 -0.43,-0.58 -0.95,-1.02 -1.55,-1.34 v 0 c 0,0 0,0 0,0 -0.6,-0.31 -1.27,-0.47 -2,-0.47 v 0 c 0,0 0,0 0,0 -0.71,0 -1.36,0.16 -1.95,0.47 v 0 c 0,0 0,0 0,0 -0.6,0.32 -1.12,0.76 -1.55,1.34 v 0 c 0,0 0,0 0,0 -0.41,0.57 -0.74,1.22 -0.97,1.95 v 0 c 0,0 0,0 0,0 -0.24,0.74 -0.36,1.54 -0.36,2.4 v 0 c 0,0 0,0 0,0 0,0.84 0.12,1.63 0.36,2.38 v 0 c 0,0 0,0 0,0 0.23,0.76 0.56,1.42 0.97,1.98 v 0 c 0,0 0,0 0,0 0.43,0.55 0.95,0.99 1.55,1.3 v 0 c 0,0 0,0 0,0 0.59,0.34 1.24,0.5 1.95,0.5 z" />
    <path
       id="c1FHvh2sSE"
       d="m 122.23,359.27 c -3.17,3.17 -28.56,28.57 -31.74,31.74 -0.48,0.49 -0.48,1.27 0.01,1.75 0.23,0.23 0.54,0.35 0.86,0.35 0.45,0 2.69,0 6.71,0 0,13.55 0,21.08 0,22.58 0,0.68 0.55,1.23 1.23,1.23 4.76,0 42.85,0 47.61,0 0.68,0 1.23,-0.55 1.23,-1.23 0,-1.5 0,-9.03 0,-22.57 4.03,0 6.26,0 6.71,0 0.68,-0.01 1.23,-0.56 1.23,-1.24 0,-0.33 -0.13,-0.64 -0.36,-0.87 -0.51,-0.51 -3.09,-3.09 -7.73,-7.74 0,-6.35 0,-9.88 0,-10.59 -0.01,-0.68 -0.56,-1.23 -1.23,-1.23 -0.53,0 -4.72,0 -5.24,0 -0.68,0 -1.23,0.55 -1.23,1.23 0,0.19 0,1.16 0,2.9 -9.79,-9.79 -15.22,-15.22 -16.31,-16.31 -0.27,-0.27 -0.64,-0.4 -1.01,-0.36 -0.28,0.03 -0.54,0.16 -0.74,0.36 z" />
  </defs>
  <g
     transform="translate(-89.635554,-358.40297)"
     id="g24">
    <g
       id="g22">
      <g
         id="g12">
        <use
           height="100%"
           width="100%"
           y="0"
           x="0"
           id="use6"
           fill-opacity="1"
           fill="#ececea"
           opacity="1"
           xlink:href="#b4JMyQrZHn" />
        <g
           id="g10">
          <use
             height="100%"
             width="100%"
             y="0"
             x="0"
             id="use8"
             stroke-opacity="0"
             stroke-width="0.66"
             stroke="#000000"
             fill-opacity="0"
             opacity="1"
             xlink:href="#b4JMyQrZHn" />
        </g>
      </g>
      <g
         id="g20">
        <use
           height="100%"
           width="100%"
           y="0"
           x="0"
           id="use14"
           fill-opacity="1"
           fill="#ececea"
           opacity="1"
           xlink:href="#c1FHvh2sSE" />
        <g
           id="g18">
          <use
             height="100%"
             width="100%"
             y="0"
             x="0"
             id="use16"
             stroke-opacity="0"
             stroke-width="1"
             stroke="#000000"
             fill-opacity="0"
             opacity="1"
             xlink:href="#c1FHvh2sSE" />
        </g>
      </g>
    </g>
  </g>
</svg>
