<?xml version="1.0" encoding="UTF-8" standalone="no"?>
<svg
   xmlns:dc="http://purl.org/dc/elements/1.1/"
   xmlns:cc="http://creativecommons.org/ns#"
   xmlns:rdf="http://www.w3.org/1999/02/22-rdf-syntax-ns#"
   xmlns:svg="http://www.w3.org/2000/svg"
   xmlns="http://www.w3.org/2000/svg"
   xmlns:sodipodi="http://sodipodi.sourceforge.net/DTD/sodipodi-0.dtd"
   xmlns:inkscape="http://www.inkscape.org/namespaces/inkscape"
   inkscape:version="1.0 (4035a4fb49, 2020-05-01)"
   sodipodi:docname="default.svg"
   id="svg16"
   version="1.1"
   class="iconAbove"
   viewBox="0 0 300 300"
   data-v-fde0c5aa="">
  <metadata
     id="metadata20">
    <rdf:RDF>
      <cc:Work
         rdf:about="">
        <dc:format>image/svg+xml</dc:format>
        <dc:type
           rdf:resource="http://purl.org/dc/dcmitype/StillImage" />
      </cc:Work>
    </rdf:RDF>
  </metadata>
  <sodipodi:namedview
     inkscape:current-layer="svg16"
     inkscape:window-maximized="1"
     inkscape:window-y="-8"
     inkscape:window-x="-8"
     inkscape:cy="219.04859"
     inkscape:cx="226.60561"
     inkscape:zoom="1.4142136"
     showgrid="false"
     id="namedview18"
     inkscape:window-height="705"
     inkscape:window-width="1366"
     inkscape:pageshadow="2"
     inkscape:pageopacity="0"
     guidetolerance="10"
     gridtolerance="10"
     objecttolerance="10"
     borderopacity="1"
     bordercolor="#666666"
     pagecolor="#ffffff" />
  <!---->
  <defs
     id="defs2"
     data-v-fde0c5aa="">
    <!---->
  </defs>
  <defs
     id="defs6"
     data-v-fde0c5aa="">
    <!---->
  </defs>
  <g
     transform="matrix(1.6897381,0,0,1.6897381,64.827986,172.85051)"
     fill="#ececea"
     id="cfb5e071-c930-4c4e-9005-9844f5b012e5"
     data-v-fde0c5aa="">
    <path
       style="stroke-width:0.66016"
       id="path8"
       d="M 15.299731,12.668443 H 14.415117 L 13.741754,11.117068 H 10.83045 l -0.673363,1.551375 H 9.2592699 L 11.78108,6.6345832 h 0.977036 z M 12.243192,7.5125956 11.153928,10.338079 h 2.251145 z m 7.327772,0.442307 h 0.752582 v 4.0401774 0 q 0,0.49512 -0.12543,0.924224 v 0 0 q -0.125431,0.422502 -0.415901,0.732777 v 0 0 q -0.29047,0.310275 -0.778988,0.488518 v 0 0 q -0.481917,0.171642 -1.208093,0.171642 v 0 0 q -0.29047,0 -0.554534,-0.05281 v 0 0 q -0.264064,-0.04621 -0.475315,-0.118829 v 0 0 q -0.244259,-0.08582 -0.45551,-0.184845 v 0 l -0.118829,-0.772389 v 0 q 0.191447,0.12543 0.442307,0.217852 v 0 0 q 0.211252,0.07922 0.508323,0.145235 v 0 0 q 0.297072,0.06602 0.653558,0.06602 v 0 0 q 0.620551,0 0.957232,-0.171641 v 0 0 q 0.336681,-0.171642 0.49512,-0.422502 v 0 0 q 0.158438,-0.257463 0.184844,-0.554535 v 0 0 q 0.01981,-0.303673 0.01981,-0.554534 v 0 0 q -0.297072,0.396096 -0.660159,0.580941 v 0 0 q -0.363088,0.178243 -0.845005,0.178243 v 0 0 q -0.409299,0 -0.78559,-0.151837 v 0 0 Q 16.778494,12.364774 16.488023,12.0611 v 0 0 q -0.297072,-0.310275 -0.475315,-0.752582 v 0 0 Q 15.841062,10.859605 15.841062,10.25886 v 0 0 q 0,-0.5941439 0.171641,-1.0430524 v 0 0 Q 16.190946,8.766899 16.488018,8.4632255 v 0 0 q 0.290471,-0.3036734 0.673363,-0.4621117 v 0 0 q 0.376291,-0.1584384 0.78559,-0.1584384 v 0 0 q 0.462112,0 0.752582,0.1254304 v 0 0 q 0.29047,0.1254303 0.45551,0.2838686 v 0 0 q 0.198048,0.1716416 0.297072,0.4026974 v 0 z M 18.10541,11.968674 v 0 0 q 0.303673,0 0.554534,-0.138634 v 0 0 q 0.244259,-0.132032 0.422502,-0.363088 v 0 0 q 0.178243,-0.231056 0.270665,-0.547932 v 0 0 q 0.09902,-0.310275 0.09902,-0.66016 v 0 0 q 0,-0.3564864 -0.09902,-0.6667614 v 0 0 q -0.09242,-0.3036735 -0.270665,-0.541331 v 0 0 Q 18.904203,8.8131102 18.659944,8.6810782 v 0 0 Q 18.409083,8.5490463 18.10541,8.5490463 v 0 0 q -0.297072,0 -0.547933,0.1320319 v 0 0 q -0.250861,0.132032 -0.422502,0.3696894 v 0 0 q -0.178243,0.2376575 -0.277267,0.541331 v 0 0 q -0.09242,0.310275 -0.09242,0.6667614 v 0 0 q 0,0.349885 0.09242,0.66016 v 0 0 q 0.09902,0.316876 0.277267,0.547932 v 0 0 q 0.171641,0.231056 0.422502,0.363088 v 0 0 q 0.250861,0.138634 0.547933,0.138634 z m 5.921632,0.811996 v 0 0 q -0.792192,0 -1.287312,-0.237657 v 0 0 q -0.495119,-0.237658 -0.772386,-0.607347 v 0 0 q -0.277267,-0.36969 -0.382893,-0.8252 v 0 0 q -0.09902,-0.45551 -0.09902,-0.897817 v 0 0 q 0,-0.4489089 0.145235,-0.8714111 v 0 0 q 0.13863,-0.4225022 0.415897,-0.7591836 v 0 0 q 0.270665,-0.3300799 0.666761,-0.5347294 v 0 0 Q 23.10942,7.8426754 23.630946,7.8426754 v 0 0 q 0.62055,0 1.036451,0.2178527 v 0 0 q 0.4159,0.2178527 0.660159,0.5677374 v 0 0 q 0.250861,0.343283 0.356487,0.7657852 v 0 0 q 0.09902,0.4159006 0.09902,0.8185983 v 0 0.29047 h -3.373416 v 0 q 0.03961,0.448909 0.204649,0.78559 v 0 0 q 0.07262,0.151837 0.184845,0.297072 v 0 0 q 0.112227,0.138634 0.270665,0.250861 v 0 0 q 0.16504,0.112227 0.376291,0.178243 v 0 0 q 0.211251,0.05941 0.488518,0.05941 v 0 0 q 0.297072,0 0.561136,-0.06602 v 0 0 q 0.264064,-0.07262 0.462112,-0.151836 v 0 0 q 0.244259,-0.105626 0.448909,-0.231056 v 0 l 0.0066,0.792191 v 0 q 0,0 -0.105625,0.05942 v 0 0 q -0.105626,0.05941 -0.290471,0.12543 v 0 0 q -0.184844,0.06602 -0.442307,0.118829 v 0 0 q -0.25086,0.05941 -0.547932,0.05941 z M 22.409651,9.8561624 h 2.449192 v 0 q 0,-0.2310558 -0.06602,-0.4621117 v 0 0 Q 24.720209,9.1563932 24.574974,8.9649469 v 0 0 Q 24.423138,8.7801022 24.192082,8.6612734 v 0 0 Q 23.961026,8.5490463 23.630946,8.5490463 v 0 0 q -0.29047,0 -0.514925,0.1122271 v 0 0 q -0.224454,0.1188288 -0.382892,0.3036735 v 0 0 q -0.158438,0.1914463 -0.237658,0.4291038 v 0 0 q -0.08582,0.2310559 -0.08582,0.4621117 z m 6.938278,-2.013487 v 0 0 q 0.924223,0 1.353327,0.5479326 v 0 0 q 0.422502,0.5413309 0.422502,1.5513752 v 0 2.7264598 h -0.878012 v -2.488802 0 q 0,-0.8384031 -0.211251,-1.2344989 v 0 0 Q 29.823244,8.5490463 29.288514,8.5490463 v 0 0 q -0.369689,0 -0.646956,0.1386335 v 0 0 q -0.270666,0.1386336 -0.45551,0.3894942 v 0 0 q -0.184845,0.2574623 -0.277267,0.6139485 v 0 0 q -0.09242,0.3498845 -0.09242,0.7855895 v 0 2.191731 h -0.87141 V 7.9549026 h 0.732777 l 0.138633,0.7459804 v 0 q 0.224455,-0.376291 0.646957,-0.6139485 v 0 0 q 0.422499,-0.2442591 0.884611,-0.2442591 z m 10.21267,-1.2080922 v 0 h 0.983638 L 38.101646,12.668443 H 36.926562 L 34.490573,6.6345832 h 0.970434 l 2.059699,5.2020588 z M 42.16823,7.9549026 V 12.668443 H 41.30342 V 7.9549026 Z m 0.118828,-1.1288731 v 0 0 q 0,0.2442591 -0.16504,0.409299 v 0 0 q -0.165039,0.16504 -0.396095,0.16504 v 0 0 q -0.237658,0 -0.409299,-0.16504 v 0 0 q -0.16504,-0.1650399 -0.16504,-0.409299 v 0 0 q 0,-0.2310558 0.16504,-0.3960958 v 0 0 q 0.171641,-0.1650399 0.409299,-0.1650399 v 0 0 q 0.231056,0 0.396095,0.1650399 v 0 0 q 0.16504,0.16504 0.16504,0.3960958 z m 3.129157,5.1954565 v 0.646957 0 q -0.151836,0.05281 -0.336681,0.08582 v 0 0 q -0.184845,0.02641 -0.343283,0.02641 v 0 0 q -0.468714,0 -0.719574,-0.277267 v 0 0 q -0.250861,-0.27727 -0.250861,-0.805398 v 0 -4.8917832 h 0.871411 v 4.8719782 0 q 0,0.198048 0.07262,0.290471 v 0 0 q 0.06602,0.09902 0.231056,0.09902 v 0 0 q 0.09242,0 0.244259,-0.0132 v 0 0 q 0.151837,-0.0132 0.231056,-0.03301 z m 2.845288,0 v 0.646957 0 q -0.151836,0.05281 -0.336681,0.08582 v 0 0 q -0.184845,0.02641 -0.336681,0.02641 v 0 0 q -0.475315,0 -0.726176,-0.277267 v 0 0 q -0.244259,-0.27727 -0.244259,-0.805398 v 0 -4.8917832 h 0.864809 v 4.8719782 0 q 0,0.198048 0.07262,0.290471 v 0 0 q 0.06602,0.09902 0.231055,0.09902 v 0 0 q 0.09242,0 0.250861,-0.0132 v 0 0 q 0.151837,-0.0132 0.224454,-0.03301 z m 3.05654,-4.1788106 v 0 0 q 0.508323,0.026406 0.904418,0.2112511 v 0 0 q 0.171642,0.085821 0.336682,0.2046495 v 0 0 q 0.16504,0.1188288 0.297072,0.2970719 v 0 0 q 0.12543,0.1782431 0.204649,0.409299 v 0 0 q 0.07922,0.2376575 0.07922,0.5545341 v 0 3.148962 h -0.811996 l -0.112227,-0.574339 v 0 q 0,0 -0.09242,0.112227 v 0 0 q -0.09242,0.112227 -0.270666,0.237658 v 0 0 q -0.171641,0.12543 -0.429104,0.231056 v 0 0 q -0.25086,0.105625 -0.567737,0.105625 v 0 0 q -0.765785,0 -1.234499,-0.349885 v 0 0 Q 49.14612,12.087502 49.14612,11.321717 v 0 0 q 0,-0.448908 0.211252,-0.739379 v 0 0 q 0.217852,-0.29047 0.521526,-0.462112 v 0 0 q 0.310275,-0.1716412 0.660159,-0.2310556 v 0 0 q 0.343283,-0.066016 0.613949,-0.066016 v 0 h 1.11567 v -0.3168767 0 Q 52.235665,9.0837756 52.044218,8.8725245 v 0 0 Q 51.852772,8.6546718 51.582107,8.5886559 v 0 0 q -0.270666,-0.072618 -0.594144,-0.019805 v 0 0 q -0.316877,0.052813 -0.594144,0.1386335 v 0 0 q -0.277267,0.085821 -0.481916,0.1848447 v 0 0 q -0.198048,0.099024 -0.257463,0.132032 v 0 -0.7393789 0 q 0.257463,-0.1188285 0.53473,-0.2178525 v 0 0 q 0.244259,-0.085821 0.541331,-0.1518367 v 0 0 q 0.29047,-0.072618 0.587542,-0.072618 z m -0.389494,4.2316236 v 0 0 q 0.554534,0 0.91102,-0.257462 v 0 0 q 0.349885,-0.264064 0.429104,-0.693168 v 0 -0.673363 h -0.488518 v 0 q -0.171642,0 -0.462112,0.0132 v 0 0 q -0.297072,0.0132 -0.574339,0.08582 v 0 0 q -0.277267,0.07922 -0.475315,0.250861 v 0 0 q -0.20465,0.16504 -0.20465,0.481917 v 0 0 q 0,0.191446 0.07922,0.343283 v 0 0 q 0.08582,0.145235 0.211251,0.25086 v 0 0 q 0.12543,0.09902 0.283868,0.151837 v 0 0 q 0.151837,0.04621 0.290471,0.04621 z m 8.79333,-2.4755988 v 0 0 q 0,0.013203 0.10562,0.026406 v 0 0 q 0.10563,0.019805 0.25746,0.072617 v 0 0 q 0.15184,0.052813 0.33669,0.1452352 v 0 0 q 0.18484,0.092422 0.33668,0.2442586 v 0 0 q 0.15183,0.151837 0.26406,0.36969 v 0 0 q 0.10563,0.217853 0.10563,0.508323 v 0 0 q 0,0.587542 -0.22446,0.924224 v 0 0 q -0.22445,0.336681 -0.57434,0.508322 v 0 0 q -0.34988,0.171642 -0.78559,0.217853 v 0 0 q -0.4423,0.05281 -0.88461,0.05281 v 0 h -1.44575 V 6.6345832 h 1.57118 v 0 q 0.44891,0 0.845,0.072618 v 0 0 q 0.3961,0.072618 0.69317,0.2706655 v 0 0 q 0.29707,0.1914463 0.46872,0.5215261 v 0 0 q 0.17824,0.3234783 0.17824,0.8318012 v 0 0 q 0,0.4026974 -0.19805,0.6469565 v 0 0 q -0.19145,0.2508607 -0.4225,0.3894942 v 0 0 q -0.23106,0.1386335 -0.42911,0.1848447 v 0 0 q -0.19804,0.046211 -0.19804,0.046211 z m -1.57118,-2.1983317 v 1.7956343 h 0.78559 v 0 q 0.20465,0 0.40269,-0.052813 v 0 0 q 0.19805,-0.052813 0.35649,-0.1650399 v 0 0 q 0.15184,-0.1188288 0.24426,-0.3036735 v 0 0 q 0.0924,-0.1848447 0.0924,-0.442307 v 0 0 q 0,-0.2574622 -0.0924,-0.4225021 v 0 0 q -0.0924,-0.1716416 -0.25086,-0.2574623 v 0 0 q -0.16504,-0.085821 -0.37629,-0.1188288 v 0 0 q -0.21125,-0.033008 -0.44231,-0.033008 v 0 z m 0,4.5220945 h 0.74598 v 0 q 0.24426,0 0.46871,-0.04621 v 0 0 q 0.22445,-0.03961 0.3961,-0.138633 v 0 0 q 0.17164,-0.105626 0.27726,-0.29047 v 0 0 q 0.10563,-0.184845 0.10563,-0.481917 v 0 0 q 0,-0.29047 -0.10563,-0.49512 v 0 0 q -0.10562,-0.198048 -0.28387,-0.310275 v 0 0 q -0.18484,-0.118831 -0.4225,-0.165042 v 0 0 q -0.23766,-0.046211 -0.50172,-0.046211 v 0 h -0.67996 z m 6.27151,-4.0797876 v 0 0 q 0.50833,0.026406 0.91102,0.2112511 v 0 0 q 0.16504,0.085821 0.33008,0.2046495 v 0 0 q 0.16504,0.1188288 0.29708,0.2970719 v 0 0 q 0.12543,0.1782431 0.20464,0.409299 v 0 0 q 0.0792,0.2376575 0.0792,0.5545341 v 0 3.148962 h -0.81199 l -0.11223,-0.574339 v 0 q 0,0 -0.0924,0.112227 v 0 0 q -0.0924,0.112227 -0.26407,0.237658 v 0 0 q -0.17824,0.12543 -0.4357,0.231056 v 0 0 q -0.25086,0.105625 -0.56774,0.105625 v 0 0 q -0.76578,0 -1.2345,-0.349885 v 0 0 q -0.47531,-0.343283 -0.47531,-1.109068 v 0 0 q 0,-0.448908 0.21785,-0.739379 v 0 0 q 0.21125,-0.29047 0.52153,-0.462112 v 0 0 q 0.31027,-0.1716412 0.65355,-0.2310556 v 0 0 q 0.34989,-0.066016 0.61395,-0.066016 v 0 h 1.12227 v -0.3168767 0 q -0.0396,-0.4225022 -0.23105,-0.6337533 v 0 0 q -0.18485,-0.2178526 -0.46211,-0.2838685 v 0 0 q -0.27067,-0.072618 -0.58754,-0.019805 v 0 0 q -0.32348,0.052813 -0.60075,0.1386335 v 0 0 q -0.27727,0.085821 -0.47532,0.1848447 v 0 0 q -0.20464,0.099024 -0.26406,0.132032 v 0 -0.7393789 0 q 0.26406,-0.1188285 0.54133,-0.2178525 v 0 0 q 0.23766,-0.085821 0.53473,-0.1518367 v 0 0 q 0.29707,-0.072618 0.58754,-0.072618 z m -0.38289,4.2316236 v 0 0 q 0.55453,0 0.90442,-0.257462 v 0 0 q 0.34988,-0.264064 0.4357,-0.693168 v 0 -0.673363 h -0.49511 v 0 q -0.17165,0 -0.46212,0.0132 v 0 0 q -0.29047,0.0132 -0.56773,0.08582 v 0 0 q -0.27727,0.07922 -0.48192,0.250861 v 0 0 q -0.20465,0.16504 -0.20465,0.481917 v 0 0 q 0,0.191446 0.0858,0.343283 v 0 0 q 0.0792,0.145235 0.20465,0.25086 v 0 0 q 0.12543,0.09902 0.28387,0.151837 v 0 0 q 0.15844,0.04621 0.29707,0.04621 z m 6.23851,-2.9575154 h -1.2477 v 2.2049334 0 q 0,0.745981 0.63375,0.745981 v 0 0 q 0.27067,0 0.54793,-0.138634 v 0 0.673363 0 q -0.38289,0.178243 -0.80539,0.178243 v 0 0 q -0.60735,0 -0.95063,-0.349885 v 0 0 q -0.33668,-0.343283 -0.33668,-1.016645 v 0 -2.2973564 h -0.83841 V 8.4104128 h 0.83841 V 7.0240774 l 0.91102,-0.2178526 v 1.604188 h 1.2477 z m 2.87169,3.6638864 v 0 0 q -0.92422,0 -1.34672,-0.547932 v 0 0 q -0.42911,-0.541331 -0.42911,-1.551376 v 0 -2.7264594 h 0.87802 v 2.4888024 0 q 0,0.838403 0.21125,1.234498 v 0 0 q 0.21785,0.396096 0.75258,0.396096 v 0 0 q 0.36969,0 0.64036,-0.138633 v 0 0 q 0.27066,-0.138634 0.45551,-0.389494 v 0 0 q 0.18484,-0.257463 0.27726,-0.607347 v 0 0 q 0.0924,-0.356487 0.0924,-0.792192 v 0 -2.1917304 h 0.87142 v 4.7135404 h -0.73278 l -0.13864,-0.74598 v 0 q -0.21785,0.376291 -0.64695,0.613948 v 0 0 q -0.4225,0.244259 -0.88462,0.244259 z m 6.54219,-6.1460868 h 1.49196 l 1.84844,4.9445958 1.73622,-4.9445958 h 1.48536 -1.48536 1.48536 v 6.0338598 h -0.92422 V 7.539002 l -0.88461,2.568021 v 0 q -0.3895,1.128873 -0.89782,2.56142 v 0 h -1.04305 l -1.88806,-5.129441 v 5.129441 h -0.92422 z m 10.02122,1.2080922 v 0 0 q 0.50832,0.026406 0.90442,0.2112511 v 0 0 q 0.16504,0.085821 0.33008,0.2046495 v 0 0 q 0.17164,0.1188288 0.29707,0.2970719 v 0 0 q 0.13203,0.1782431 0.21125,0.409299 v 0 0 q 0.0792,0.2376575 0.0792,0.5545341 v 0 3.148962 h -0.8186 l -0.10562,-0.574339 v 0 q 0,0 -0.0924,0.112227 v 0 0 q -0.0924,0.112227 -0.27067,0.237658 v 0 0 q -0.17824,0.12543 -0.4291,0.231056 v 0 0 q -0.25747,0.105625 -0.56774,0.105625 v 0 0 q -0.76579,0 -1.2411,-0.349885 v 0 0 q -0.46871,-0.343283 -0.46871,-1.109068 v 0 0 q 0,-0.448908 0.21125,-0.739379 v 0 0 q 0.21125,-0.29047 0.52152,-0.462112 v 0 0 q 0.31028,-0.1716412 0.65356,-0.2310556 v 0 0 q 0.34989,-0.066016 0.62055,-0.066016 v 0 h 1.11567 v -0.3168767 0 q -0.0396,-0.4225022 -0.22445,-0.6337533 v 0 0 q -0.19145,-0.2178527 -0.46212,-0.2838686 v 0 0 q -0.27726,-0.072618 -0.59414,-0.019805 v 0 0 q -0.31688,0.052813 -0.59414,0.1386335 v 0 0 q -0.27727,0.085821 -0.48192,0.1848447 v 0 0 q -0.20465,0.099024 -0.25746,0.132032 v 0 -0.7393789 0 q 0.25746,-0.1188287 0.53473,-0.2178527 v 0 0 q 0.23765,-0.085821 0.53473,-0.1518367 v 0 0 q 0.29707,-0.072618 0.59414,-0.072617 z m -0.38949,4.2316236 v 0 0 q 0.55453,0 0.90441,-0.257462 v 0 0 q 0.34989,-0.264064 0.43571,-0.693168 v 0 -0.673363 h -0.48852 v 0 q -0.17824,0 -0.46871,0.0132 v 0 0 q -0.29047,0.0132 -0.56774,0.08582 v 0 0 q -0.27727,0.07922 -0.48192,0.250861 v 0 0 q -0.20464,0.16504 -0.20464,0.481917 v 0 0 q 0,0.191446 0.0858,0.343283 v 0 0 q 0.0858,0.145235 0.20465,0.25086 v 0 0 q 0.12543,0.09902 0.28386,0.151837 v 0 0 q 0.15844,0.04621 0.29708,0.04621 z m 5.33409,-0.05281 v 0.646957 0 q -0.15184,0.05281 -0.33669,0.08582 v 0 0 q -0.18484,0.02641 -0.33668,0.02641 v 0 0 q -0.47531,0 -0.72617,-0.277267 v 0 0 q -0.24426,-0.277267 -0.24426,-0.805395 v 0 -4.8917832 h 0.86481 v 4.8719782 0 q 0,0.198048 0.0726,0.290471 v 0 0 q 0.066,0.09902 0.23105,0.09902 v 0 0 q 0.0924,0 0.24426,-0.0132 v 0 0 q 0.15844,-0.0132 0.23106,-0.03301 z m 3.05654,-4.1788106 v 0 0 q 0.50832,0.026406 0.90441,0.2112511 v 0 0 q 0.17165,0.085821 0.33669,0.2046495 v 0 0 q 0.16504,0.1188288 0.29707,0.2970719 v 0 0 q 0.12543,0.1782431 0.20465,0.409299 v 0 0 q 0.0792,0.2376575 0.0792,0.5545341 v 0 3.148962 h -0.812 l -0.11223,-0.574339 v 0 q 0,0 -0.0924,0.112227 v 0 0 q -0.0924,0.112227 -0.27066,0.237658 v 0 0 q -0.17165,0.12543 -0.42911,0.231056 v 0 0 q -0.25086,0.105625 -0.56774,0.105625 v 0 0 q -0.76578,0 -1.23449,-0.349885 v 0 0 q -0.47532,-0.343283 -0.47532,-1.109068 v 0 0 q 0,-0.448908 0.21125,-0.739379 v 0 0 q 0.21785,-0.29047 0.52153,-0.462112 v 0 0 q 0.31027,-0.1716412 0.66016,-0.2310556 v 0 0 q 0.34328,-0.066016 0.61395,-0.066016 v 0 h 1.11567 v -0.3168767 0 q -0.033,-0.4225022 -0.22446,-0.6337533 v 0 0 q -0.19144,-0.2178527 -0.46211,-0.2838686 v 0 0 q -0.27067,-0.072618 -0.59414,-0.019805 v 0 0 q -0.31688,0.052813 -0.59415,0.1386335 v 0 0 q -0.27726,0.085821 -0.48191,0.1848447 v 0 0 q -0.19805,0.099024 -0.25747,0.132032 v 0 -0.7393789 0 q 0.25747,-0.1188287 0.53473,-0.2178527 v 0 0 q 0.24426,-0.085821 0.54133,-0.1518367 v 0 0 q 0.29047,-0.072618 0.58755,-0.072617 z m -0.3895,4.2316236 v 0 0 q 0.55454,0 0.91102,-0.257462 v 0 0 q 0.34989,-0.264064 0.42911,-0.693168 v 0 -0.673363 h -0.48852 v 0 q -0.17164,0 -0.46872,0.0132 v 0 0 q -0.29047,0.0132 -0.56773,0.08582 v 0 0 q -0.27727,0.07922 -0.47532,0.250861 v 0 0 q -0.20465,0.16504 -0.20465,0.481917 v 0 0 q 0,0.191446 0.0792,0.343283 v 0 0 q 0.0858,0.145235 0.21125,0.25086 v 0 0 q 0.12543,0.09902 0.28387,0.151837 v 0 0 q 0.15184,0.04621 0.29047,0.04621 z m 6.093281,-4.2316236 v 0 0 q 0.92422,0 1.34672,0.5479326 v 0 0 q 0.4291,0.5413309 0.4291,1.5513752 v 0 2.7264598 h -0.87801 v -2.488802 0 q 0,-0.8384031 -0.21125,-1.2344989 v 0 0 q -0.21785,-0.3960958 -0.75258,-0.3960958 v 0 0 q -0.36969,0 -0.64036,0.1386335 v 0 0 q -0.27066,0.1386336 -0.45551,0.3894942 v 0 0 q -0.18484,0.2574623 -0.27726,0.6139485 v 0 0 q -0.0924,0.3498845 -0.0924,0.7855895 v 0 2.191731 h -0.87141 V 7.9549026 h 0.73278 l 0.13863,0.7459804 v 0 q 0.21786,-0.376291 0.64696,-0.6139485 v 0 0 q 0.4225,-0.2442591 0.88462,-0.2442591 z m 6.67421,0.1122272 h 0.74598 v 4.0401774 0 q 0,0.49512 -0.12543,0.924224 v 0 0 q -0.12543,0.422502 -0.4159,0.732777 v 0 0 q -0.29047,0.310275 -0.77239,0.488518 v 0 0 q -0.48852,0.171642 -1.20809,0.171642 v 0 0 q -0.29707,0 -0.56114,-0.05281 v 0 0 q -0.26406,-0.04621 -0.47531,-0.118829 v 0 0 q -0.23766,-0.08582 -0.44891,-0.184845 v 0 l -0.12543,-0.772392 v 0 q 0.19805,0.12543 0.44891,0.217852 v 0 0 q 0.21125,0.07922 0.50832,0.145235 v 0 0 q 0.29047,0.06602 0.65356,0.06602 v 0 0 q 0.62055,0 0.95723,-0.171641 v 0 0 q 0.33668,-0.171642 0.49512,-0.422502 v 0 0 q 0.15844,-0.257463 0.17824,-0.554535 v 0 0 q 0.0264,-0.303673 0.0264,-0.554534 v 0 0 q -0.29707,0.396096 -0.66676,0.580941 v 0 0 q -0.36309,0.178243 -0.845,0.178243 v 0 0 q -0.4027,0 -0.78559,-0.151837 v 0 0 q -0.3763,-0.151836 -0.67337,-0.45551 v 0 0 q -0.29707,-0.310275 -0.46871,-0.752582 v 0 0 q -0.17824,-0.448909 -0.17824,-1.049654 v 0 0 q 0,-0.5941439 0.17824,-1.0430524 v 0 0 q 0.17164,-0.4489086 0.46871,-0.7525821 v 0 0 q 0.29707,-0.3036734 0.67337,-0.4621117 v 0 0 q 0.38289,-0.1584384 0.78559,-0.1584384 v 0 0 q 0.46211,0 0.75918,0.1254304 v 0 0 q 0.29047,0.1254303 0.45551,0.2838686 v 0 0 q 0.19145,0.1716416 0.29707,0.4026974 v 0 z m -1.47216,4.0137714 v 0 0 q 0.30368,0 0.55454,-0.138634 v 0 0 q 0.25086,-0.132032 0.4291,-0.363088 v 0 0 q 0.17164,-0.231056 0.27067,-0.547932 v 0 0 q 0.099,-0.310275 0.099,-0.66016 v 0 0 q 0,-0.3564864 -0.099,-0.6667614 v 0 0 q -0.099,-0.3036735 -0.27067,-0.541331 v 0 0 q -0.17824,-0.2376574 -0.4291,-0.3696894 v 0 0 Q 108.92358,8.5490493 108.6199,8.5490493 v 0 0 q -0.29707,0 -0.54133,0.1320319 v 0 0 q -0.25086,0.132032 -0.4291,0.3696894 v 0 0 q -0.17164,0.2376575 -0.27067,0.541331 v 0 0 q -0.099,0.310275 -0.099,0.6667614 v 0 0 q 0,0.349885 0.099,0.66016 v 0 0 q 0.099,0.316876 0.27067,0.547932 v 0 0 q 0.17824,0.231056 0.4291,0.363088 v 0 0 q 0.24426,0.138634 0.54133,0.138634 z" />
  </g>
  <defs
     id="defs11"
     data-v-fde0c5aa="">
    <!---->
  </defs>
  <g
     transform="matrix(0.30912296,0,0,0.30912296,38.38609,162.51414)"
     fill="#ececea"
     stroke="none"
     id="05928b54-2a45-4fde-acd2-e8bee0cd27fb"
     data-v-fde0c5aa="">
    <path
       id="path13"
       d="m 62.289,18.522 c -0.422,0.049 -0.814,0.24 -1.113,0.542 L 13.042,67.199 a 1.87,1.87 0 0 0 1.324,3.188 h 10.168 v 34.236 a 1.871,1.871 0 0 0 1.865,1.865 h 72.203 a 1.873,1.873 0 0 0 1.865,-1.865 V 70.388 h 10.168 a 1.872,1.872 0 0 0 1.324,-3.189 L 100.226,55.466 V 39.401 a 1.872,1.872 0 0 0 -1.865,-1.865 h -7.942 a 1.873,1.873 0 0 0 -1.865,1.865 v 4.392 L 63.824,19.064 a 1.873,1.873 0 0 0 -1.535,-0.542 z" />
  </g>
  <!---->
</svg>
